<mxfile host="app.diagrams.net" modified="2023-12-20T13:17:22.844Z" agent="Mozilla/5.0 (Windows NT 10.0; Win64; x64) AppleWebKit/537.36 (KHTML, like Gecko) Chrome/120.0.0.0 Safari/537.36" etag="oCVMBKyjiKldLkePqOGs" version="22.1.11" type="github">
  <diagram id="C5RBs43oDa-KdzZeNtuy" name="Page-1">
    <mxGraphModel dx="880" dy="506" grid="1" gridSize="10" guides="1" tooltips="1" connect="1" arrows="1" fold="1" page="1" pageScale="1" pageWidth="827" pageHeight="1169" math="0" shadow="0">
      <root>
        <mxCell id="WIyWlLk6GJQsqaUBKTNV-0" />
        <mxCell id="WIyWlLk6GJQsqaUBKTNV-1" parent="WIyWlLk6GJQsqaUBKTNV-0" />
        <mxCell id="Sr0cGhNuGBauKo3Cro-6-14" value="True" style="text;html=1;strokeColor=none;fillColor=none;align=center;verticalAlign=middle;whiteSpace=wrap;rounded=0;shadow=0;" vertex="1" parent="WIyWlLk6GJQsqaUBKTNV-1">
          <mxGeometry x="80" y="230" width="80" height="30" as="geometry" />
        </mxCell>
        <mxCell id="Sr0cGhNuGBauKo3Cro-6-0" value="Mulai" style="ellipse;whiteSpace=wrap;html=1;" vertex="1" parent="WIyWlLk6GJQsqaUBKTNV-1">
          <mxGeometry x="354" y="10" width="126" height="40" as="geometry" />
        </mxCell>
        <mxCell id="Sr0cGhNuGBauKo3Cro-6-1" value="" style="endArrow=classic;html=1;rounded=0;exitX=0.5;exitY=1;exitDx=0;exitDy=0;" edge="1" parent="WIyWlLk6GJQsqaUBKTNV-1">
          <mxGeometry width="50" height="50" relative="1" as="geometry">
            <mxPoint x="414" y="50" as="sourcePoint" />
            <mxPoint x="414" y="90" as="targetPoint" />
          </mxGeometry>
        </mxCell>
        <mxCell id="Sr0cGhNuGBauKo3Cro-6-4" value="" style="edgeStyle=orthogonalEdgeStyle;rounded=0;orthogonalLoop=1;jettySize=auto;html=1;" edge="1" parent="WIyWlLk6GJQsqaUBKTNV-1" source="Sr0cGhNuGBauKo3Cro-6-2" target="Sr0cGhNuGBauKo3Cro-6-3">
          <mxGeometry relative="1" as="geometry" />
        </mxCell>
        <mxCell id="Sr0cGhNuGBauKo3Cro-6-2" value="Int VIP&lt;br&gt;int eksekutif&lt;br&gt;int ekonomi" style="shape=hexagon;perimeter=hexagonPerimeter2;whiteSpace=wrap;html=1;fixedSize=1;" vertex="1" parent="WIyWlLk6GJQsqaUBKTNV-1">
          <mxGeometry x="316" y="90" width="196" height="50" as="geometry" />
        </mxCell>
        <mxCell id="Sr0cGhNuGBauKo3Cro-6-6" value="" style="edgeStyle=orthogonalEdgeStyle;rounded=0;orthogonalLoop=1;jettySize=auto;html=1;" edge="1" parent="WIyWlLk6GJQsqaUBKTNV-1" source="Sr0cGhNuGBauKo3Cro-6-3" target="Sr0cGhNuGBauKo3Cro-6-5">
          <mxGeometry relative="1" as="geometry" />
        </mxCell>
        <mxCell id="Sr0cGhNuGBauKo3Cro-6-8" value="" style="edgeStyle=orthogonalEdgeStyle;rounded=0;orthogonalLoop=1;jettySize=auto;html=1;" edge="1" parent="WIyWlLk6GJQsqaUBKTNV-1" source="Sr0cGhNuGBauKo3Cro-6-3" target="Sr0cGhNuGBauKo3Cro-6-7">
          <mxGeometry relative="1" as="geometry" />
        </mxCell>
        <mxCell id="Sr0cGhNuGBauKo3Cro-6-9" value="" style="edgeStyle=orthogonalEdgeStyle;rounded=0;orthogonalLoop=1;jettySize=auto;html=1;" edge="1" parent="WIyWlLk6GJQsqaUBKTNV-1" source="Sr0cGhNuGBauKo3Cro-6-3" target="Sr0cGhNuGBauKo3Cro-6-7">
          <mxGeometry relative="1" as="geometry" />
        </mxCell>
        <mxCell id="Sr0cGhNuGBauKo3Cro-6-11" value="" style="edgeStyle=orthogonalEdgeStyle;rounded=0;orthogonalLoop=1;jettySize=auto;html=1;" edge="1" parent="WIyWlLk6GJQsqaUBKTNV-1" source="Sr0cGhNuGBauKo3Cro-6-3" target="Sr0cGhNuGBauKo3Cro-6-10">
          <mxGeometry relative="1" as="geometry" />
        </mxCell>
        <mxCell id="Sr0cGhNuGBauKo3Cro-6-3" value="VIP, eksekutif, ekonomi" style="shape=parallelogram;perimeter=parallelogramPerimeter;whiteSpace=wrap;html=1;fixedSize=1;" vertex="1" parent="WIyWlLk6GJQsqaUBKTNV-1">
          <mxGeometry x="259" y="170" width="310" height="30" as="geometry" />
        </mxCell>
        <mxCell id="Sr0cGhNuGBauKo3Cro-6-13" value="" style="edgeStyle=orthogonalEdgeStyle;rounded=0;orthogonalLoop=1;jettySize=auto;html=1;" edge="1" parent="WIyWlLk6GJQsqaUBKTNV-1" source="Sr0cGhNuGBauKo3Cro-6-5" target="Sr0cGhNuGBauKo3Cro-6-12">
          <mxGeometry relative="1" as="geometry" />
        </mxCell>
        <mxCell id="Sr0cGhNuGBauKo3Cro-6-16" value="" style="edgeStyle=orthogonalEdgeStyle;rounded=0;orthogonalLoop=1;jettySize=auto;html=1;" edge="1" parent="WIyWlLk6GJQsqaUBKTNV-1" source="Sr0cGhNuGBauKo3Cro-6-5" target="Sr0cGhNuGBauKo3Cro-6-15">
          <mxGeometry relative="1" as="geometry" />
        </mxCell>
        <mxCell id="Sr0cGhNuGBauKo3Cro-6-5" value="VIP &amp;gt;= 35" style="rhombus;whiteSpace=wrap;html=1;" vertex="1" parent="WIyWlLk6GJQsqaUBKTNV-1">
          <mxGeometry x="140" y="220" width="80" height="80" as="geometry" />
        </mxCell>
        <mxCell id="Sr0cGhNuGBauKo3Cro-6-54" value="" style="edgeStyle=orthogonalEdgeStyle;rounded=0;orthogonalLoop=1;jettySize=auto;html=1;" edge="1" parent="WIyWlLk6GJQsqaUBKTNV-1" source="Sr0cGhNuGBauKo3Cro-6-7" target="Sr0cGhNuGBauKo3Cro-6-53">
          <mxGeometry relative="1" as="geometry" />
        </mxCell>
        <mxCell id="Sr0cGhNuGBauKo3Cro-6-7" value="ekonomi" style="rhombus;whiteSpace=wrap;html=1;" vertex="1" parent="WIyWlLk6GJQsqaUBKTNV-1">
          <mxGeometry x="630" y="220" width="80" height="80" as="geometry" />
        </mxCell>
        <mxCell id="Sr0cGhNuGBauKo3Cro-6-32" value="" style="edgeStyle=orthogonalEdgeStyle;rounded=0;orthogonalLoop=1;jettySize=auto;html=1;" edge="1" parent="WIyWlLk6GJQsqaUBKTNV-1" source="Sr0cGhNuGBauKo3Cro-6-10" target="Sr0cGhNuGBauKo3Cro-6-31">
          <mxGeometry relative="1" as="geometry" />
        </mxCell>
        <mxCell id="Sr0cGhNuGBauKo3Cro-6-36" value="" style="edgeStyle=orthogonalEdgeStyle;rounded=0;orthogonalLoop=1;jettySize=auto;html=1;" edge="1" parent="WIyWlLk6GJQsqaUBKTNV-1" source="Sr0cGhNuGBauKo3Cro-6-10" target="Sr0cGhNuGBauKo3Cro-6-35">
          <mxGeometry relative="1" as="geometry" />
        </mxCell>
        <mxCell id="Sr0cGhNuGBauKo3Cro-6-10" value="eksekutif&amp;nbsp;&lt;br&gt;&amp;gt;= 40" style="rhombus;whiteSpace=wrap;html=1;" vertex="1" parent="WIyWlLk6GJQsqaUBKTNV-1">
          <mxGeometry x="374" y="230" width="80" height="80" as="geometry" />
        </mxCell>
        <mxCell id="Sr0cGhNuGBauKo3Cro-6-12" value="Untung 25%" style="shape=parallelogram;perimeter=parallelogramPerimeter;whiteSpace=wrap;html=1;fixedSize=1;" vertex="1" parent="WIyWlLk6GJQsqaUBKTNV-1">
          <mxGeometry x="10" y="300" width="120" height="30" as="geometry" />
        </mxCell>
        <mxCell id="Sr0cGhNuGBauKo3Cro-6-18" value="" style="edgeStyle=orthogonalEdgeStyle;rounded=0;orthogonalLoop=1;jettySize=auto;html=1;" edge="1" parent="WIyWlLk6GJQsqaUBKTNV-1" source="Sr0cGhNuGBauKo3Cro-6-15" target="Sr0cGhNuGBauKo3Cro-6-17">
          <mxGeometry relative="1" as="geometry" />
        </mxCell>
        <mxCell id="Sr0cGhNuGBauKo3Cro-6-20" value="" style="edgeStyle=orthogonalEdgeStyle;rounded=0;orthogonalLoop=1;jettySize=auto;html=1;" edge="1" parent="WIyWlLk6GJQsqaUBKTNV-1" source="Sr0cGhNuGBauKo3Cro-6-15" target="Sr0cGhNuGBauKo3Cro-6-19">
          <mxGeometry relative="1" as="geometry" />
        </mxCell>
        <mxCell id="Sr0cGhNuGBauKo3Cro-6-15" value="VIP &amp;gt;= 20&lt;br&gt;&amp;amp;&amp;amp;&lt;br&gt;VIP &amp;lt;35" style="rhombus;whiteSpace=wrap;html=1;" vertex="1" parent="WIyWlLk6GJQsqaUBKTNV-1">
          <mxGeometry x="115" y="390" width="130" height="100" as="geometry" />
        </mxCell>
        <mxCell id="Sr0cGhNuGBauKo3Cro-6-17" value="Untung 15%" style="shape=parallelogram;perimeter=parallelogramPerimeter;whiteSpace=wrap;html=1;fixedSize=1;" vertex="1" parent="WIyWlLk6GJQsqaUBKTNV-1">
          <mxGeometry y="510" width="100" height="20" as="geometry" />
        </mxCell>
        <mxCell id="Sr0cGhNuGBauKo3Cro-6-22" value="" style="edgeStyle=orthogonalEdgeStyle;rounded=0;orthogonalLoop=1;jettySize=auto;html=1;" edge="1" parent="WIyWlLk6GJQsqaUBKTNV-1" source="Sr0cGhNuGBauKo3Cro-6-19" target="Sr0cGhNuGBauKo3Cro-6-21">
          <mxGeometry relative="1" as="geometry" />
        </mxCell>
        <mxCell id="Sr0cGhNuGBauKo3Cro-6-19" value="VIP &amp;lt; 20" style="rhombus;whiteSpace=wrap;html=1;" vertex="1" parent="WIyWlLk6GJQsqaUBKTNV-1">
          <mxGeometry x="140" y="580" width="80" height="80" as="geometry" />
        </mxCell>
        <mxCell id="Sr0cGhNuGBauKo3Cro-6-21" value="Untung 5 %" style="shape=parallelogram;perimeter=parallelogramPerimeter;whiteSpace=wrap;html=1;fixedSize=1;" vertex="1" parent="WIyWlLk6GJQsqaUBKTNV-1">
          <mxGeometry y="690" width="130" height="30" as="geometry" />
        </mxCell>
        <mxCell id="Sr0cGhNuGBauKo3Cro-6-25" value="True" style="text;html=1;strokeColor=none;fillColor=none;align=center;verticalAlign=middle;whiteSpace=wrap;rounded=0;" vertex="1" parent="WIyWlLk6GJQsqaUBKTNV-1">
          <mxGeometry x="55" y="580" width="60" height="30" as="geometry" />
        </mxCell>
        <mxCell id="Sr0cGhNuGBauKo3Cro-6-26" value="True" style="text;html=1;strokeColor=none;fillColor=none;align=center;verticalAlign=middle;whiteSpace=wrap;rounded=0;" vertex="1" parent="WIyWlLk6GJQsqaUBKTNV-1">
          <mxGeometry x="55" y="400" width="60" height="30" as="geometry" />
        </mxCell>
        <mxCell id="Sr0cGhNuGBauKo3Cro-6-27" value="False" style="text;html=1;strokeColor=none;fillColor=none;align=center;verticalAlign=middle;whiteSpace=wrap;rounded=0;" vertex="1" parent="WIyWlLk6GJQsqaUBKTNV-1">
          <mxGeometry x="190" y="505" width="60" height="30" as="geometry" />
        </mxCell>
        <mxCell id="Sr0cGhNuGBauKo3Cro-6-28" value="False" style="text;html=1;strokeColor=none;fillColor=none;align=center;verticalAlign=middle;whiteSpace=wrap;rounded=0;" vertex="1" parent="WIyWlLk6GJQsqaUBKTNV-1">
          <mxGeometry x="185" y="320" width="60" height="30" as="geometry" />
        </mxCell>
        <mxCell id="Sr0cGhNuGBauKo3Cro-6-34" value="" style="edgeStyle=orthogonalEdgeStyle;rounded=0;orthogonalLoop=1;jettySize=auto;html=1;" edge="1" parent="WIyWlLk6GJQsqaUBKTNV-1" source="Sr0cGhNuGBauKo3Cro-6-31" target="Sr0cGhNuGBauKo3Cro-6-33">
          <mxGeometry relative="1" as="geometry" />
        </mxCell>
        <mxCell id="Sr0cGhNuGBauKo3Cro-6-38" value="" style="edgeStyle=orthogonalEdgeStyle;rounded=0;orthogonalLoop=1;jettySize=auto;html=1;" edge="1" parent="WIyWlLk6GJQsqaUBKTNV-1" source="Sr0cGhNuGBauKo3Cro-6-31" target="Sr0cGhNuGBauKo3Cro-6-37">
          <mxGeometry relative="1" as="geometry" />
        </mxCell>
        <mxCell id="Sr0cGhNuGBauKo3Cro-6-31" value="eksekutif&lt;br&gt;&amp;gt;= 20&lt;br&gt;&amp;amp;&amp;amp;&lt;br&gt;&amp;lt; 40" style="rhombus;whiteSpace=wrap;html=1;" vertex="1" parent="WIyWlLk6GJQsqaUBKTNV-1">
          <mxGeometry x="374" y="390" width="126" height="100" as="geometry" />
        </mxCell>
        <mxCell id="Sr0cGhNuGBauKo3Cro-6-40" value="" style="edgeStyle=orthogonalEdgeStyle;rounded=0;orthogonalLoop=1;jettySize=auto;html=1;" edge="1" parent="WIyWlLk6GJQsqaUBKTNV-1" source="Sr0cGhNuGBauKo3Cro-6-33" target="Sr0cGhNuGBauKo3Cro-6-39">
          <mxGeometry relative="1" as="geometry" />
        </mxCell>
        <mxCell id="Sr0cGhNuGBauKo3Cro-6-33" value="eksekutif&amp;nbsp;&lt;br&gt;&amp;lt; 20" style="rhombus;whiteSpace=wrap;html=1;" vertex="1" parent="WIyWlLk6GJQsqaUBKTNV-1">
          <mxGeometry x="374" y="550" width="80" height="80" as="geometry" />
        </mxCell>
        <mxCell id="Sr0cGhNuGBauKo3Cro-6-35" value="untung 20 %" style="shape=parallelogram;perimeter=parallelogramPerimeter;whiteSpace=wrap;html=1;fixedSize=1;" vertex="1" parent="WIyWlLk6GJQsqaUBKTNV-1">
          <mxGeometry x="245" y="285" width="120" height="25" as="geometry" />
        </mxCell>
        <mxCell id="Sr0cGhNuGBauKo3Cro-6-37" value="untung 10%" style="shape=parallelogram;perimeter=parallelogramPerimeter;whiteSpace=wrap;html=1;fixedSize=1;" vertex="1" parent="WIyWlLk6GJQsqaUBKTNV-1">
          <mxGeometry x="250" y="470" width="120" height="20" as="geometry" />
        </mxCell>
        <mxCell id="Sr0cGhNuGBauKo3Cro-6-39" value="untung 2%" style="shape=parallelogram;perimeter=parallelogramPerimeter;whiteSpace=wrap;html=1;fixedSize=1;" vertex="1" parent="WIyWlLk6GJQsqaUBKTNV-1">
          <mxGeometry x="234" y="640" width="120" height="20" as="geometry" />
        </mxCell>
        <mxCell id="Sr0cGhNuGBauKo3Cro-6-42" value="Text" style="text;html=1;strokeColor=none;fillColor=none;align=center;verticalAlign=middle;whiteSpace=wrap;rounded=0;" vertex="1" parent="WIyWlLk6GJQsqaUBKTNV-1">
          <mxGeometry x="330" y="300" width="60" height="30" as="geometry" />
        </mxCell>
        <mxCell id="Sr0cGhNuGBauKo3Cro-6-43" value="Text" style="text;html=1;strokeColor=none;fillColor=none;align=center;verticalAlign=middle;whiteSpace=wrap;rounded=0;" vertex="1" parent="WIyWlLk6GJQsqaUBKTNV-1">
          <mxGeometry x="330" y="300" width="60" height="30" as="geometry" />
        </mxCell>
        <mxCell id="Sr0cGhNuGBauKo3Cro-6-44" value="Text" style="text;html=1;strokeColor=none;fillColor=none;align=center;verticalAlign=middle;whiteSpace=wrap;rounded=0;" vertex="1" parent="WIyWlLk6GJQsqaUBKTNV-1">
          <mxGeometry x="330" y="300" width="60" height="30" as="geometry" />
        </mxCell>
        <mxCell id="Sr0cGhNuGBauKo3Cro-6-45" value="Text" style="text;html=1;strokeColor=none;fillColor=none;align=center;verticalAlign=middle;whiteSpace=wrap;rounded=0;" vertex="1" parent="WIyWlLk6GJQsqaUBKTNV-1">
          <mxGeometry x="330" y="300" width="60" height="30" as="geometry" />
        </mxCell>
        <mxCell id="Sr0cGhNuGBauKo3Cro-6-46" value="Text" style="text;html=1;strokeColor=none;fillColor=none;align=center;verticalAlign=middle;whiteSpace=wrap;rounded=0;" vertex="1" parent="WIyWlLk6GJQsqaUBKTNV-1">
          <mxGeometry x="330" y="300" width="60" height="30" as="geometry" />
        </mxCell>
        <mxCell id="Sr0cGhNuGBauKo3Cro-6-47" value="True" style="text;html=1;strokeColor=none;fillColor=none;align=center;verticalAlign=middle;whiteSpace=wrap;rounded=0;" vertex="1" parent="WIyWlLk6GJQsqaUBKTNV-1">
          <mxGeometry x="280" y="555" width="60" height="30" as="geometry" />
        </mxCell>
        <mxCell id="Sr0cGhNuGBauKo3Cro-6-48" value="False" style="text;html=1;strokeColor=none;fillColor=none;align=center;verticalAlign=middle;whiteSpace=wrap;rounded=0;" vertex="1" parent="WIyWlLk6GJQsqaUBKTNV-1">
          <mxGeometry x="440" y="490" width="60" height="30" as="geometry" />
        </mxCell>
        <mxCell id="Sr0cGhNuGBauKo3Cro-6-49" value="True" style="text;html=1;strokeColor=none;fillColor=none;align=center;verticalAlign=middle;whiteSpace=wrap;rounded=0;" vertex="1" parent="WIyWlLk6GJQsqaUBKTNV-1">
          <mxGeometry x="305" y="440" width="60" height="30" as="geometry" />
        </mxCell>
        <mxCell id="Sr0cGhNuGBauKo3Cro-6-50" value="False" style="text;html=1;strokeColor=none;fillColor=none;align=center;verticalAlign=middle;whiteSpace=wrap;rounded=0;" vertex="1" parent="WIyWlLk6GJQsqaUBKTNV-1">
          <mxGeometry x="430" y="310" width="60" height="30" as="geometry" />
        </mxCell>
        <mxCell id="Sr0cGhNuGBauKo3Cro-6-51" value="True" style="text;html=1;strokeColor=none;fillColor=none;align=center;verticalAlign=middle;whiteSpace=wrap;rounded=0;" vertex="1" parent="WIyWlLk6GJQsqaUBKTNV-1">
          <mxGeometry x="320" y="230" width="60" height="30" as="geometry" />
        </mxCell>
        <mxCell id="Sr0cGhNuGBauKo3Cro-6-53" value="Untung 7 %" style="shape=parallelogram;perimeter=parallelogramPerimeter;whiteSpace=wrap;html=1;fixedSize=1;" vertex="1" parent="WIyWlLk6GJQsqaUBKTNV-1">
          <mxGeometry x="610" y="390" width="120" height="30" as="geometry" />
        </mxCell>
        <mxCell id="Sr0cGhNuGBauKo3Cro-6-56" value="" style="endArrow=none;html=1;rounded=0;exitX=0.5;exitY=1;exitDx=0;exitDy=0;" edge="1" parent="WIyWlLk6GJQsqaUBKTNV-1" source="Sr0cGhNuGBauKo3Cro-6-19">
          <mxGeometry width="50" height="50" relative="1" as="geometry">
            <mxPoint x="190" y="730" as="sourcePoint" />
            <mxPoint x="180" y="840" as="targetPoint" />
          </mxGeometry>
        </mxCell>
        <mxCell id="Sr0cGhNuGBauKo3Cro-6-57" value="" style="endArrow=none;html=1;rounded=0;exitX=0.5;exitY=1;exitDx=0;exitDy=0;" edge="1" parent="WIyWlLk6GJQsqaUBKTNV-1" source="Sr0cGhNuGBauKo3Cro-6-33">
          <mxGeometry width="50" height="50" relative="1" as="geometry">
            <mxPoint x="410" y="740" as="sourcePoint" />
            <mxPoint x="414" y="840" as="targetPoint" />
          </mxGeometry>
        </mxCell>
        <mxCell id="Sr0cGhNuGBauKo3Cro-6-58" value="" style="endArrow=none;html=1;rounded=0;exitX=0.5;exitY=1;exitDx=0;exitDy=0;" edge="1" parent="WIyWlLk6GJQsqaUBKTNV-1" source="Sr0cGhNuGBauKo3Cro-6-53">
          <mxGeometry width="50" height="50" relative="1" as="geometry">
            <mxPoint x="680" y="650" as="sourcePoint" />
            <mxPoint x="670" y="840" as="targetPoint" />
          </mxGeometry>
        </mxCell>
        <mxCell id="Sr0cGhNuGBauKo3Cro-6-59" value="" style="endArrow=none;html=1;rounded=0;" edge="1" parent="WIyWlLk6GJQsqaUBKTNV-1">
          <mxGeometry width="50" height="50" relative="1" as="geometry">
            <mxPoint x="180" y="840" as="sourcePoint" />
            <mxPoint x="420" y="840" as="targetPoint" />
          </mxGeometry>
        </mxCell>
        <mxCell id="Sr0cGhNuGBauKo3Cro-6-60" value="" style="endArrow=none;html=1;rounded=0;" edge="1" parent="WIyWlLk6GJQsqaUBKTNV-1">
          <mxGeometry width="50" height="50" relative="1" as="geometry">
            <mxPoint x="420" y="840" as="sourcePoint" />
            <mxPoint x="670" y="840" as="targetPoint" />
          </mxGeometry>
        </mxCell>
        <mxCell id="Sr0cGhNuGBauKo3Cro-6-61" value="" style="endArrow=classic;html=1;rounded=0;" edge="1" parent="WIyWlLk6GJQsqaUBKTNV-1">
          <mxGeometry width="50" height="50" relative="1" as="geometry">
            <mxPoint x="414" y="840" as="sourcePoint" />
            <mxPoint x="414" y="970" as="targetPoint" />
          </mxGeometry>
        </mxCell>
        <mxCell id="Sr0cGhNuGBauKo3Cro-6-62" value="Selesai" style="ellipse;whiteSpace=wrap;html=1;" vertex="1" parent="WIyWlLk6GJQsqaUBKTNV-1">
          <mxGeometry x="354" y="960" width="120" height="40" as="geometry" />
        </mxCell>
      </root>
    </mxGraphModel>
  </diagram>
</mxfile>
